<svg width="1760" height="1811" xmlns="http://www.w3.org/2000/svg" xmlns:xlink="http://www.w3.org/1999/xlink" xml:space="preserve" overflow="hidden"><defs><clipPath id="clip0"><rect x="1275" y="270" width="1760" height="1811"/></clipPath><linearGradient x1="2156" y1="354" x2="2156" y2="2044" gradientUnits="userSpaceOnUse" spreadMethod="reflect" id="fill1"><stop offset="0" stop-color="#FFC000"/><stop offset="0.0172414" stop-color="#FFC001"/><stop offset="0.0344828" stop-color="#FFC103"/><stop offset="0.0517241" stop-color="#FFC105"/><stop offset="0.0689655" stop-color="#FFC207"/><stop offset="0.0862069" stop-color="#FFC209"/><stop offset="0.103448" stop-color="#FFC20A"/><stop offset="0.12069" stop-color="#FFC30C"/><stop offset="0.137931" stop-color="#FFC30E"/><stop offset="0.155172" stop-color="#FFC40F"/><stop offset="0.172414" stop-color="#FFC411"/><stop offset="0.189655" stop-color="#FFC513"/><stop offset="0.206897" stop-color="#FFC514"/><stop offset="0.224138" stop-color="#FFC616"/><stop offset="0.241379" stop-color="#FFC617"/><stop offset="0.258621" stop-color="#FFC619"/><stop offset="0.275862" stop-color="#FFC71A"/><stop offset="0.293103" stop-color="#FFC71C"/><stop offset="0.310345" stop-color="#FFC81D"/><stop offset="0.327586" stop-color="#FFC81E"/><stop offset="0.344828" stop-color="#FFC820"/><stop offset="0.362069" stop-color="#FFC921"/><stop offset="0.37931" stop-color="#FFC922"/><stop offset="0.396552" stop-color="#FFC924"/><stop offset="0.413793" stop-color="#FFCA25"/><stop offset="0.431034" stop-color="#FFCA26"/><stop offset="0.448276" stop-color="#FFCA27"/><stop offset="0.465517" stop-color="#FFCB28"/><stop offset="0.482759" stop-color="#FFCB29"/><stop offset="0.5" stop-color="#FFCB2A"/><stop offset="0.517241" stop-color="#FFCB2B"/><stop offset="0.534483" stop-color="#FFCC2C"/><stop offset="0.551724" stop-color="#FFCC2D"/><stop offset="0.568965" stop-color="#FFCC2E"/><stop offset="0.586207" stop-color="#FFCC2F"/><stop offset="0.603448" stop-color="#FFCD30"/><stop offset="0.62069" stop-color="#FFCD31"/><stop offset="0.637931" stop-color="#FFCD32"/><stop offset="0.655172" stop-color="#FFCD32"/><stop offset="0.672414" stop-color="#FFCE33"/><stop offset="0.689655" stop-color="#FFCE34"/><stop offset="0.706897" stop-color="#FFCE35"/><stop offset="0.724138" stop-color="#FFCE35"/><stop offset="0.741379" stop-color="#FFCE36"/><stop offset="0.758621" stop-color="#FFCE36"/><stop offset="0.775862" stop-color="#FFCF37"/><stop offset="0.793103" stop-color="#FFCF37"/><stop offset="0.810345" stop-color="#FFCF38"/><stop offset="0.827586" stop-color="#FFCF38"/><stop offset="0.844828" stop-color="#FFCF39"/><stop offset="0.862069" stop-color="#FFCF39"/><stop offset="0.87931" stop-color="#FFCF39"/><stop offset="0.896552" stop-color="#FFCF3A"/><stop offset="0.913793" stop-color="#FFCF3A"/><stop offset="0.931035" stop-color="#FFCF3A"/><stop offset="0.948276" stop-color="#FFCF3A"/><stop offset="0.965517" stop-color="#FFCF3A"/><stop offset="0.982759" stop-color="#FFCF3A"/><stop offset="1" stop-color="#FFD03B"/></linearGradient><clipPath id="clip2"><rect x="1404" y="433" width="493" height="490"/></clipPath><clipPath id="clip3"><rect x="1404" y="433" width="493" height="490"/></clipPath><clipPath id="clip4"><rect x="1404" y="433" width="493" height="490"/></clipPath><clipPath id="clip5"><rect x="2519" y="431" width="427" height="429"/></clipPath><clipPath id="clip6"><rect x="2519" y="431" width="427" height="429"/></clipPath><clipPath id="clip7"><rect x="2519" y="431" width="427" height="429"/></clipPath><clipPath id="clip8"><rect x="1386" y="1565" width="406" height="407"/></clipPath><clipPath id="clip9"><rect x="1386" y="1565" width="406" height="407"/></clipPath><clipPath id="clip10"><rect x="1386" y="1565" width="406" height="407"/></clipPath><clipPath id="clip11"><rect x="1761" y="852" width="878" height="879"/></clipPath><clipPath id="clip12"><rect x="1761" y="852" width="878" height="879"/></clipPath><clipPath id="clip13"><rect x="1761" y="852" width="878" height="879"/></clipPath><clipPath id="clip14"><rect x="2471" y="1576" width="422" height="421"/></clipPath><clipPath id="clip15"><rect x="2471" y="1576" width="422" height="421"/></clipPath><clipPath id="clip16"><rect x="2471" y="1576" width="422" height="421"/></clipPath></defs><g clip-path="url(#clip0)" transform="translate(-1275 -270)"><path d="M1275 614.339C1275 452.332 1406.33 321 1568.34 321L2741.66 321C2903.67 321 3035 452.332 3035 614.339L3035 1787.66C3035 1949.67 2903.67 2081 2741.66 2081L1568.34 2081C1406.33 2081 1275 1949.67 1275 1787.66Z" fill="#000000" fill-rule="evenodd" fill-opacity="0.101961"/><path d="M1298 1768 3014 1768C3014 1929.82 2885.95 2061 2727.99 2061L1584.01 2061C1426.05 2061 1298 1929.82 1298 1768Z" fill="#FFC000" fill-rule="evenodd"/><path d="M1298 634C1298 472.18 1426.05 341 1584.01 341L2727.99 341C2885.95 341 3014 472.18 3014 634L1298 634Z" fill="#FFD03B" fill-rule="evenodd"/><path d="M1298 660.308C1298 510.187 1421.42 354 1567.73 354L2729.86 354C2876.18 354 3014 510.187 3014 660.308L3014 1747.55C3014 1897.67 2876.18 2044 2729.86 2044L1568.94 2043.19C1422.63 2043.19 1298 1897.67 1298 1747.55L1298 660.308Z" fill="url(#fill1)" fill-rule="evenodd"/><path d="M1298 648C1298 485.628 1426.05 354 1584.01 354L2727.99 354C2885.95 354 3014 485.628 3014 648L1298 648Z" fill="#FFC000" fill-rule="evenodd" fill-opacity="0.501961"/><rect x="1298" y="648" width="1716" height="643" fill="#FFC000" fill-opacity="0.501961"/><g clip-path="url(#clip2)"><g clip-path="url(#clip3)"><g clip-path="url(#clip4)"><path d="M377.198 10.2083 377.198 10.2083C380.771 23.4792 390.469 34.7083 403.229 40.8333L403.229 40.8333C390.469 46.9583 381.281 58.1875 377.198 71.4583L377.198 71.4583C373.625 58.1875 363.927 46.9583 351.167 40.8333L351.167 40.8333C363.927 34.7083 373.625 23.4792 377.198 10.2083Z" transform="matrix(1.00204 0 0 1 1405 433)"/><path d="M50.5312 122.5 50.5312 122.5C54.1042 135.771 63.8021 147 76.5625 153.125L76.5625 153.125C63.8021 159.25 54.6146 170.479 50.5312 183.75L50.5312 183.75C46.9583 170.479 37.2604 159.25 24.5 153.125L24.5 153.125C37.2604 147 46.9583 135.771 50.5312 122.5Z" transform="matrix(1.00204 0 0 1 1405 433)"/><path d="M101.062 20.4167 101.062 20.4167C104.125 31.6458 112.292 40.8333 122.5 45.9375L122.5 45.9375C111.781 51.0416 104.125 60.2291 101.062 71.4583L101.062 71.4583C98 60.2291 89.8333 51.0416 79.625 45.9375L79.625 45.9375C89.8333 40.8333 98 31.6458 101.062 20.4167Z" transform="matrix(1.00204 0 0 1 1405 433)"/><path d="M437.937 102.083 437.937 102.083C441 113.312 449.167 122.5 459.375 127.604L459.375 127.604C448.656 132.708 441 141.896 437.937 153.125L437.937 153.125C434.875 141.896 426.708 132.708 416.5 127.604L416.5 127.604C426.708 122.5 434.875 113.312 437.937 102.083Z" transform="matrix(1.00204 0 0 1 1405 433)"/><path d="M245 201.615C240.917 201.615 237.344 198.042 237.344 193.958L237.344 142.917C237.344 138.833 240.917 135.26 245 135.26 249.083 135.26 252.656 138.833 252.656 142.917L252.656 193.958C252.656 198.042 249.083 201.615 245 201.615Z" transform="matrix(1.00204 0 0 1 1405 433)"/><path d="M245 119.948C240.917 119.948 237.344 116.375 237.344 112.292L237.344 71.4583C237.344 67.375 240.917 63.8021 245 63.8021 249.083 63.8021 252.656 67.375 252.656 71.4583L252.656 112.292C252.656 116.375 249.083 119.948 245 119.948Z" transform="matrix(1.00204 0 0 1 1405 433)"/><path d="M245 48.4896C240.917 48.4896 237.344 44.9167 237.344 40.8333L237.344 20.4167C237.344 16.3333 240.917 12.7604 245 12.7604 249.083 12.7604 252.656 16.3333 252.656 20.4167L252.656 40.8333C252.656 44.9167 249.083 48.4896 245 48.4896Z" transform="matrix(1.00204 0 0 1 1405 433)"/><path d="M301.146 165.885C300.635 165.885 300.125 165.885 299.615 165.885 295.531 164.865 292.979 160.781 294 156.698L302.677 116.885C303.698 112.802 307.781 110.25 311.864 111.271 315.948 112.292 318.5 116.375 317.479 120.458L308.802 160.271C307.781 163.333 304.719 165.885 301.146 165.885Z" transform="matrix(1.00204 0 0 1 1405 433)"/><path d="M316.458 95.9583C315.948 95.9583 315.437 95.9583 314.927 95.9583 310.844 94.9375 308.292 90.8541 309.312 86.7708L309.312 86.7708 315.948 56.6562C316.969 52.5729 320.542 50.0208 325.135 50.5312 329.219 51.5521 331.771 55.125 331.26 59.7187 331.26 59.7187 331.26 59.7187 331.26 60.2291L324.625 90.3437C323.094 93.4062 320.031 95.9583 316.458 95.9583Z" transform="matrix(1.00204 0 0 1 1405 433)"/><path d="M352.187 155.677C348.104 155.677 344.531 152.104 344.531 148.021 344.531 146.49 345.042 144.958 346.062 143.427L380.771 92.8958C383.323 89.3229 387.917 88.8125 391.489 91.3646 394.552 93.9166 395.573 98 393.531 101.573L358.823 152.104C357.292 154.656 354.739 155.677 352.187 155.677Z" transform="matrix(1.00204 0 0 1 1405 433)"/><path d="M188.854 165.885C185.281 165.885 182.219 163.333 181.198 159.76L170.479 109.74C169.458 105.656 172.521 101.573 176.604 100.552 180.687 99.5312 184.771 102.083 185.281 106.167L196 156.187C197.021 160.271 194.469 164.354 190.385 165.375 189.875 165.885 189.365 165.885 188.854 165.885Z" transform="matrix(1.00204 0 0 1 1405 433)"/><path d="M171.5 86.2604C167.927 86.2604 164.865 83.7083 163.844 80.1354L159.76 60.2291C158.74 56.1458 161.292 52.0625 165.375 51.0416 169.458 50.0208 173.542 52.5729 174.562 56.6562 174.562 56.6562 174.562 56.6562 174.562 57.1666L178.646 77.0729C179.667 81.1562 177.115 85.2396 173.031 86.2604L173.031 86.2604C172.521 86.2604 172.01 86.2604 171.5 86.2604L171.5 86.2604Z" transform="matrix(1.00204 0 0 1 1405 433)"/><path d="M137.812 155.677C135.26 155.677 132.708 154.656 131.687 152.615L96.9791 102.083C94.9375 98.5104 95.9583 93.9166 99.5312 91.3646 103.104 89.3229 107.187 89.8333 109.74 93.4062L144.448 143.937C147 147.51 145.979 152.104 142.406 154.656 140.875 155.167 139.344 155.677 137.812 155.677Z" transform="matrix(1.00204 0 0 1 1405 433)"/><path d="M468.562 418.031 453.25 252.656C452.739 247.552 448.146 243.469 443.042 243.469 441 243.469 437.937 243.469 435.385 243.469L432.833 213.865 423.646 213.354C415.989 212.844 408.333 213.354 401.187 213.865L398.635 186.302 390.979 184.771C337.385 178.135 283.792 196 245 233.771 206.208 196 152.615 178.135 99.0208 184.771L91.3646 186.302 88.8125 213.865C81.1562 213.354 74.0104 212.844 66.3541 213.354L57.6771 213.865 55.125 243.469C52.0625 243.469 49.5104 243.469 47.4687 243.469 42.3646 243.469 37.7708 247.552 37.2604 252.656L21.9479 418.031C20.9271 423.646 25.0104 428.75 30.625 429.26 31.1354 429.26 31.6458 429.26 32.1562 429.26 63.2916 428.239 150.573 430.281 221.521 476.729 225.094 478.771 228.667 480.302 232.75 480.302L258.271 480.302C262.354 480.302 265.927 479.281 268.99 477.239 343.51 430.792 428.239 428.75 458.354 429.771 463.969 429.771 468.562 425.687 469.073 420.073 468.562 418.542 468.562 418.542 468.562 418.031ZM255.208 252.146C287.875 218.458 333.302 201.104 379.75 203.656L393.531 361.885C369.542 366.479 307.271 381.792 255.208 426.708L255.208 252.146ZM110.25 204.167C156.698 201.615 202.125 218.969 234.792 252.656L234.792 427.219C182.729 382.302 120.458 366.989 96.4687 362.396L110.25 204.167ZM61.25 393.021 76.5625 233.26C79.625 233.26 83.1979 233.771 87.2812 233.771L74.5208 379.75 84.2187 380.771C85.2396 380.771 171.5 392 231.729 451.719L231.729 451.719C164.865 400.677 90.3437 394.042 61.25 393.021ZM258.271 452.739 258.271 452.739C319.521 392.51 405.271 380.771 405.781 380.771L415.479 379.75 402.719 233.771C406.802 233.26 410.375 233.26 413.437 233.26L428.75 393.021C399.656 394.042 325.135 401.187 258.271 452.739Z" transform="matrix(1.00204 0 0 1 1405 433)"/></g></g></g><g clip-path="url(#clip5)"><g clip-path="url(#clip6)"><g clip-path="url(#clip7)"><path d="M17.8184 17.7917 17.8184 409.208 409.235 409.208ZM44.5058 338.042 62.2975 338.042 62.2975 320.25 44.5058 320.25 44.5058 275.771 62.2975 275.771 62.2975 257.979 44.5058 257.979 44.5058 213.5 62.2975 213.5 62.2975 195.708 44.5058 195.708 44.5058 151.229 62.2975 151.229 62.2975 133.437 44.5058 133.437 44.5058 82.2197 344.807 382.521 293.589 382.521 293.589 364.729 275.797 364.729 275.797 382.521 231.318 382.521 231.318 364.729 213.527 364.729 213.527 382.521 169.048 382.521 169.048 364.729 151.256 364.729 151.256 382.521 106.777 382.521 106.777 364.729 88.985 364.729 88.985 382.521 44.5058 382.521Z" transform="matrix(1 0 0 1.00234 2519 431)"/><path d="M97.8808 191.26 97.8808 329.146 235.766 329.146ZM124.568 255.688 171.338 302.458 124.568 302.458Z" transform="matrix(1 0 0 1.00234 2519 431)"/></g></g></g><g clip-path="url(#clip8)"><g clip-path="url(#clip9)"><g clip-path="url(#clip10)"><path d="M1692.19 1578.11 1399.11 1871.19 1485.81 1957.89 1778.47 1665.23 1692.19 1578.11ZM1698.11 1709.64 1665.12 1742.63 1638.9 1716.4 1627.06 1728.25 1653.28 1754.47 1620.3 1787.45 1594.07 1761.23 1582.23 1773.08 1608.45 1799.3 1575.47 1832.28 1549.25 1806.06 1537.4 1817.9 1563.62 1844.13 1530.64 1877.11 1504.42 1850.89 1492.57 1862.73 1518.8 1888.95 1486.23 1921.52 1435.48 1870.77 1692.19 1614.06 1742.94 1664.81 1710.38 1697.37 1684.16 1671.15 1671.89 1683.42 1698.11 1709.64Z"/></g></g></g><g clip-path="url(#clip11)"><g clip-path="url(#clip12)"><g clip-path="url(#clip13)"><path d="M2547.54 1053.21 2547.54 1501.35 1852.46 1501.35 1852.46 1053.21 1797.58 1053.21 1797.58 1565.38 2117.69 1565.38C2117.69 1580.92 2129.58 1592.81 2145.12 1592.81L2254.88 1592.81C2270.42 1592.81 2282.31 1580.92 2282.31 1565.38L2602.42 1565.38 2602.42 1053.21 2547.54 1053.21Z"/><path d="M2510.96 998.333 1889.04 998.333 1889.04 1464.77 2510.96 1464.77 2510.96 998.333ZM1943.92 1053.21 2181.71 1053.21 2181.71 1409.9 1943.92 1409.9 1943.92 1053.21ZM2456.08 1409.9 2218.29 1409.9 2218.29 1053.21 2456.08 1053.21 2456.08 1409.9Z"/><path d="M2273.17 1144.67 2401.21 1144.67 2401.21 1172.1 2273.17 1172.1Z"/><path d="M2273.17 1199.54 2401.21 1199.54 2401.21 1226.98 2273.17 1226.98Z"/><path d="M2273.17 1254.42 2361.88 1254.42 2361.88 1281.85 2273.17 1281.85Z"/></g></g></g><g clip-path="url(#clip14)"><g clip-path="url(#clip15)"><g clip-path="url(#clip16)"><path d="M192.52 346.009 165.33 346.009 73.2364 253.915 156.998 170.154 262.248 275.404 192.52 346.009ZM377.146 179.802 253.477 55.6948C246.46 48.6781 235.497 48.6781 228.48 55.6948L42.5385 241.636C35.5219 248.653 35.5219 259.617 42.5385 266.633L148.227 372.322 334.169 372.322 334.169 346.009 235.935 346.009 377.146 204.799C384.162 197.782 384.162 186.38 377.146 179.802Z" transform="matrix(1 0 0 1 2472 1576)"/></g></g></g><path d="M2035 345 2363 345 2363 910.645C2363 953.367 2338.52 988 2308.33 988L2089.67 988C2059.48 988 2035 953.367 2035 910.645L2035 345Z" stroke="#FFD03B" stroke-width="10.3125" stroke-miterlimit="8" fill="#E6AF00" fill-rule="evenodd"/><text font-family="Calibri,Calibri_MSFontService,sans-serif" font-weight="700" font-size="440" transform="matrix(1 0 0 1 2095.03 815)">S</text></g></svg>